<?xml version="1.0" encoding="UTF-8" standalone="no"?>
<!DOCTYPE svg PUBLIC "-//W3C//DTD SVG 1.1//EN"
 "http://www.w3.org/Graphics/SVG/1.1/DTD/svg11.dtd">
<!-- Generated by graphviz version 2.38.0 (20140413.2041)
 -->
<!-- Title: Structure Pages: 1 -->
<svg width="474pt" height="609pt"
 viewBox="0.00 0.00 473.50 609.00" xmlns="http://www.w3.org/2000/svg" xmlns:xlink="http://www.w3.org/1999/xlink">
<g id="graph0" class="graph" transform="scale(1 1) rotate(0) translate(4 605)">
<title>Structure</title>
<polygon fill="black" stroke="none" points="-4,4 -4,-605 469.5,-605 469.5,4 -4,4"/>
<!-- G1 -->
<g id="node1" class="node"><title>G1</title>
<g id="a_node1"><a xlink:href="https://sgm-abi.de/teams/G-Junioren.html" xlink:title="Bambini\n&lt;=U7\nTGV Beilstein">
<polygon fill="red" stroke="red" points="132.5,-601 36.5,-601 36.5,-548 132.5,-548 132.5,-601"/>
<text text-anchor="middle" x="84.5" y="-585.8" font-family="Times New Roman,serif" font-size="14.00" fill="white">Bambini</text>
<text text-anchor="middle" x="84.5" y="-570.8" font-family="Times New Roman,serif" font-size="14.00" fill="white">&lt;=U7</text>
<text text-anchor="middle" x="84.5" y="-555.8" font-family="Times New Roman,serif" font-size="14.00" fill="white">TGV Beilstein</text>
</a>
</g>
</g>
<!-- F1 -->
<g id="node5" class="node"><title>F1</title>
<g id="a_node5"><a xlink:href="https://sgm-abi.de/teams/F-Junioren.html" xlink:title="F&#45;Junioren\nTGV Beilstein\nU8/U9">
<polygon fill="red" stroke="red" points="132.5,-512 36.5,-512 36.5,-459 132.5,-459 132.5,-512"/>
<text text-anchor="middle" x="84.5" y="-496.8" font-family="Times New Roman,serif" font-size="14.00" fill="white">F&#45;Junioren</text>
<text text-anchor="middle" x="84.5" y="-481.8" font-family="Times New Roman,serif" font-size="14.00" fill="white">TGV Beilstein</text>
<text text-anchor="middle" x="84.5" y="-466.8" font-family="Times New Roman,serif" font-size="14.00" fill="white">U8/U9</text>
</a>
</g>
</g>
<!-- G1&#45;&gt;F1 -->
<g id="edge1" class="edge"><title>G1&#45;&gt;F1</title>
<path fill="none" stroke="white" d="M84.5,-547.868C84.5,-539.886 84.5,-530.932 84.5,-522.384"/>
<polygon fill="white" stroke="white" points="88.0001,-522.25 84.5,-512.25 81.0001,-522.25 88.0001,-522.25"/>
</g>
<!-- G2 -->
<g id="node2" class="node"><title>G2</title>
<g id="a_node2"><a xlink:href="https://sgm-abi.de/teams/G-Junioren.html" xlink:title="Bambini\n&lt;=U7\nSC Abstatt">
<polygon fill="yellow" stroke="yellow" points="230,-601 151,-601 151,-548 230,-548 230,-601"/>
<text text-anchor="middle" x="190.5" y="-585.8" font-family="Times New Roman,serif" font-size="14.00">Bambini</text>
<text text-anchor="middle" x="190.5" y="-570.8" font-family="Times New Roman,serif" font-size="14.00">&lt;=U7</text>
<text text-anchor="middle" x="190.5" y="-555.8" font-family="Times New Roman,serif" font-size="14.00">SC Abstatt</text>
</a>
</g>
</g>
<!-- F2 -->
<g id="node6" class="node"><title>F2</title>
<g id="a_node6"><a xlink:href="https://sgm-abi.de/teams/F-Junioren.html" xlink:title="F&#45;Junioren\nSC Abstatt\nU8/U9">
<polygon fill="yellow" stroke="yellow" points="230,-512 151,-512 151,-459 230,-459 230,-512"/>
<text text-anchor="middle" x="190.5" y="-496.8" font-family="Times New Roman,serif" font-size="14.00">F&#45;Junioren</text>
<text text-anchor="middle" x="190.5" y="-481.8" font-family="Times New Roman,serif" font-size="14.00">SC Abstatt</text>
<text text-anchor="middle" x="190.5" y="-466.8" font-family="Times New Roman,serif" font-size="14.00">U8/U9</text>
</a>
</g>
</g>
<!-- G2&#45;&gt;F2 -->
<g id="edge2" class="edge"><title>G2&#45;&gt;F2</title>
<path fill="none" stroke="white" d="M190.5,-547.868C190.5,-539.886 190.5,-530.932 190.5,-522.384"/>
<polygon fill="white" stroke="white" points="194,-522.25 190.5,-512.25 187,-522.25 194,-522.25"/>
</g>
<!-- G3 -->
<g id="node3" class="node"><title>G3</title>
<g id="a_node3"><a xlink:href="https://sgm-abi.de/teams/G-Junioren.html" xlink:title="Bambini\n&lt;=U7\nSC Ilsfeld">
<polygon fill="green" stroke="green" points="451,-601 378,-601 378,-548 451,-548 451,-601"/>
<text text-anchor="middle" x="414.5" y="-585.8" font-family="Times New Roman,serif" font-size="14.00" fill="white">Bambini</text>
<text text-anchor="middle" x="414.5" y="-570.8" font-family="Times New Roman,serif" font-size="14.00" fill="white">&lt;=U7</text>
<text text-anchor="middle" x="414.5" y="-555.8" font-family="Times New Roman,serif" font-size="14.00" fill="white">SC Ilsfeld</text>
</a>
</g>
</g>
<!-- F3 -->
<g id="node7" class="node"><title>F3</title>
<g id="a_node7"><a xlink:href="https://sgm-abi.de/teams/F-Junioren.html" xlink:title="F&#45;Junioren\nSC Ilsfeld\nU8/U9">
<polygon fill="green" stroke="green" points="452.5,-512 376.5,-512 376.5,-459 452.5,-459 452.5,-512"/>
<text text-anchor="middle" x="414.5" y="-496.8" font-family="Times New Roman,serif" font-size="14.00" fill="white">F&#45;Junioren</text>
<text text-anchor="middle" x="414.5" y="-481.8" font-family="Times New Roman,serif" font-size="14.00" fill="white">SC Ilsfeld</text>
<text text-anchor="middle" x="414.5" y="-466.8" font-family="Times New Roman,serif" font-size="14.00" fill="white">U8/U9</text>
</a>
</g>
</g>
<!-- G3&#45;&gt;F3 -->
<g id="edge3" class="edge"><title>G3&#45;&gt;F3</title>
<path fill="none" stroke="white" d="M414.5,-547.868C414.5,-539.886 414.5,-530.932 414.5,-522.384"/>
<polygon fill="white" stroke="white" points="418,-522.25 414.5,-512.25 411,-522.25 418,-522.25"/>
</g>
<!-- G4 -->
<g id="node4" class="node"><title>G4</title>
<g id="a_node4"><a xlink:href="https://sgm-abi.de/teams/G-Junioren.html" xlink:title="Bambini\n&lt;=U7\nSPVGG Heinriet">
<polygon fill="red" stroke="red" points="358.5,-601 248.5,-601 248.5,-548 358.5,-548 358.5,-601"/>
<text text-anchor="middle" x="303.5" y="-585.8" font-family="Times New Roman,serif" font-size="14.00" fill="white">Bambini</text>
<text text-anchor="middle" x="303.5" y="-570.8" font-family="Times New Roman,serif" font-size="14.00" fill="white">&lt;=U7</text>
<text text-anchor="middle" x="303.5" y="-555.8" font-family="Times New Roman,serif" font-size="14.00" fill="white">SPVGG Heinriet</text>
</a>
</g>
</g>
<!-- F4 -->
<g id="node8" class="node"><title>F4</title>
<g id="a_node8"><a xlink:href="https://sgm-abi.de/teams/F-Junioren.html" xlink:title="F&#45;Junioren\nSPVGG Heinriet\nU8/U9">
<polygon fill="red" stroke="red" points="358.5,-512 248.5,-512 248.5,-459 358.5,-459 358.5,-512"/>
<text text-anchor="middle" x="303.5" y="-496.8" font-family="Times New Roman,serif" font-size="14.00" fill="white">F&#45;Junioren</text>
<text text-anchor="middle" x="303.5" y="-481.8" font-family="Times New Roman,serif" font-size="14.00" fill="white">SPVGG Heinriet</text>
<text text-anchor="middle" x="303.5" y="-466.8" font-family="Times New Roman,serif" font-size="14.00" fill="white">U8/U9</text>
</a>
</g>
</g>
<!-- G4&#45;&gt;F4 -->
<g id="edge4" class="edge"><title>G4&#45;&gt;F4</title>
<path fill="none" stroke="white" d="M303.5,-547.868C303.5,-539.886 303.5,-530.932 303.5,-522.384"/>
<polygon fill="white" stroke="white" points="307,-522.25 303.5,-512.25 300,-522.25 307,-522.25"/>
</g>
<!-- E1 -->
<g id="node9" class="node"><title>E1</title>
<g id="a_node9"><a xlink:href="https://sgm-abi.de/teams/E-Junioren.html" xlink:title="E&#45;Junioren\nU10/U11\nTGV Beilstein">
<polygon fill="red" stroke="red" points="140.5,-423 44.5,-423 44.5,-370 140.5,-370 140.5,-423"/>
<text text-anchor="middle" x="92.5" y="-407.8" font-family="Times New Roman,serif" font-size="14.00" fill="white">E&#45;Junioren</text>
<text text-anchor="middle" x="92.5" y="-392.8" font-family="Times New Roman,serif" font-size="14.00" fill="white">U10/U11</text>
<text text-anchor="middle" x="92.5" y="-377.8" font-family="Times New Roman,serif" font-size="14.00" fill="white">TGV Beilstein</text>
</a>
</g>
</g>
<!-- F1&#45;&gt;E1 -->
<g id="edge5" class="edge"><title>F1&#45;&gt;E1</title>
<path fill="none" stroke="white" d="M86.857,-458.868C87.591,-450.886 88.4143,-441.932 89.2004,-433.384"/>
<polygon fill="white" stroke="white" points="92.7017,-433.528 90.1322,-423.25 85.7311,-432.887 92.7017,-433.528"/>
</g>
<!-- E3 -->
<g id="node10" class="node"><title>E3</title>
<g id="a_node10"><a xlink:href="https://sgm-abi.de/teams/E-Junioren.html" xlink:title="E&#45;Junioren\nU10/U11\nSC Abstatt &amp; SPVGG Heinriet">
<polygon fill="orange" stroke="orange" points="350,-423 159,-423 159,-370 350,-370 350,-423"/>
<text text-anchor="middle" x="254.5" y="-407.8" font-family="Times New Roman,serif" font-size="14.00">E&#45;Junioren</text>
<text text-anchor="middle" x="254.5" y="-392.8" font-family="Times New Roman,serif" font-size="14.00">U10/U11</text>
<text text-anchor="middle" x="254.5" y="-377.8" font-family="Times New Roman,serif" font-size="14.00">SC Abstatt &amp; SPVGG Heinriet</text>
</a>
</g>
</g>
<!-- F2&#45;&gt;E3 -->
<g id="edge6" class="edge"><title>F2&#45;&gt;E3</title>
<path fill="none" stroke="white" d="M209.356,-458.868C215.679,-450.272 222.832,-440.549 229.548,-431.419"/>
<polygon fill="white" stroke="white" points="232.451,-433.379 235.558,-423.25 226.813,-429.231 232.451,-433.379"/>
</g>
<!-- E2 -->
<g id="node11" class="node"><title>E2</title>
<g id="a_node11"><a xlink:href="https://sgm-abi.de/teams/E-Junioren.html" xlink:title="E&#45;Junioren\nU10/U11\nSC Ilsfeld">
<polygon fill="green" stroke="green" points="444.5,-423 368.5,-423 368.5,-370 444.5,-370 444.5,-423"/>
<text text-anchor="middle" x="406.5" y="-407.8" font-family="Times New Roman,serif" font-size="14.00" fill="white">E&#45;Junioren</text>
<text text-anchor="middle" x="406.5" y="-392.8" font-family="Times New Roman,serif" font-size="14.00" fill="white">U10/U11</text>
<text text-anchor="middle" x="406.5" y="-377.8" font-family="Times New Roman,serif" font-size="14.00" fill="white">SC Ilsfeld</text>
</a>
</g>
</g>
<!-- F3&#45;&gt;E2 -->
<g id="edge7" class="edge"><title>F3&#45;&gt;E2</title>
<path fill="none" stroke="white" d="M412.143,-458.868C411.409,-450.886 410.586,-441.932 409.8,-433.384"/>
<polygon fill="white" stroke="white" points="413.269,-432.887 408.868,-423.25 406.298,-433.528 413.269,-432.887"/>
</g>
<!-- F4&#45;&gt;E3 -->
<g id="edge8" class="edge"><title>F4&#45;&gt;E3</title>
<path fill="none" stroke="white" d="M289.063,-458.868C284.321,-450.447 278.969,-440.945 273.919,-431.978"/>
<polygon fill="white" stroke="white" points="276.96,-430.245 269.003,-423.25 270.861,-433.68 276.96,-430.245"/>
</g>
<!-- D1 -->
<g id="node16" class="node"><title>D1</title>
<g id="a_node16"><a xlink:href="https://sgm-abi.de/teams/D-Junioren.html" xlink:title="D1&#45;Junioren\nU12/U13">
<polygon fill="black" stroke="white" points="245.5,-334 161.5,-334 161.5,-296 245.5,-296 245.5,-334"/>
<text text-anchor="middle" x="203.5" y="-318.8" font-family="Times New Roman,serif" font-size="14.00" fill="white">D1&#45;Junioren</text>
<text text-anchor="middle" x="203.5" y="-303.8" font-family="Times New Roman,serif" font-size="14.00" fill="white">U12/U13</text>
</a>
</g>
</g>
<!-- E1&#45;&gt;D1 -->
<g id="edge9" class="edge"><title>E1&#45;&gt;D1</title>
<path fill="none" stroke="white" d="M128.232,-369.908C141.541,-360.376 156.595,-349.594 169.723,-340.192"/>
<polygon fill="white" stroke="white" points="171.942,-342.907 178.034,-334.239 167.866,-337.216 171.942,-342.907"/>
</g>
<!-- D2 -->
<g id="node17" class="node"><title>D2</title>
<g id="a_node17"><a xlink:href="https://sgm-abi.de/teams/D-Junioren.html" xlink:title="D2&#45;Junioren\nU12/U13">
<polygon fill="black" stroke="white" points="347.5,-334 263.5,-334 263.5,-296 347.5,-296 347.5,-334"/>
<text text-anchor="middle" x="305.5" y="-318.8" font-family="Times New Roman,serif" font-size="14.00" fill="white">D2&#45;Junioren</text>
<text text-anchor="middle" x="305.5" y="-303.8" font-family="Times New Roman,serif" font-size="14.00" fill="white">U12/U13</text>
</a>
</g>
</g>
<!-- E1&#45;&gt;D2 -->
<g id="edge12" class="edge"><title>E1&#45;&gt;D2</title>
<path fill="none" stroke="white" d="M140.572,-373.627C143.581,-372.372 146.575,-371.153 149.5,-370 192.617,-353.004 206.269,-350.476 253.847,-334.19"/>
<polygon fill="white" stroke="white" points="255.175,-337.434 263.486,-330.862 252.891,-330.817 255.175,-337.434"/>
</g>
<!-- E3&#45;&gt;D1 -->
<g id="edge11" class="edge"><title>E3&#45;&gt;D1</title>
<path fill="none" stroke="white" d="M238.083,-369.908C232.55,-361.284 226.361,-351.637 220.765,-342.913"/>
<polygon fill="white" stroke="white" points="223.546,-340.766 215.2,-334.239 217.654,-344.546 223.546,-340.766"/>
</g>
<!-- E3&#45;&gt;D2 -->
<g id="edge14" class="edge"><title>E3&#45;&gt;D2</title>
<path fill="none" stroke="white" d="M270.917,-369.908C276.45,-361.284 282.639,-351.637 288.235,-342.913"/>
<polygon fill="white" stroke="white" points="291.346,-344.546 293.8,-334.239 285.454,-340.766 291.346,-344.546"/>
</g>
<!-- E2&#45;&gt;D1 -->
<g id="edge10" class="edge"><title>E2&#45;&gt;D1</title>
<path fill="none" stroke="white" d="M368.246,-374.505C364.979,-372.918 361.701,-371.394 358.5,-370 316.371,-351.65 302.363,-350.25 255.089,-334.156"/>
<polygon fill="white" stroke="white" points="256.112,-330.806 245.518,-330.852 253.829,-337.423 256.112,-330.806"/>
</g>
<!-- E2&#45;&gt;D2 -->
<g id="edge13" class="edge"><title>E2&#45;&gt;D2</title>
<path fill="none" stroke="white" d="M373.987,-369.908C361.992,-360.467 348.44,-349.799 336.576,-340.461"/>
<polygon fill="white" stroke="white" points="338.694,-337.674 328.671,-334.239 334.364,-343.174 338.694,-337.674"/>
</g>
<!-- Act1 -->
<g id="node12" class="node"><title>Act1</title>
<polygon fill="red" stroke="red" points="149,-38 0,-38 0,-0 149,-0 149,-38"/>
<text text-anchor="middle" x="74.5" y="-22.8" font-family="Times New Roman,serif" font-size="14.00" fill="white">Aktive</text>
<text text-anchor="middle" x="74.5" y="-7.8" font-family="Times New Roman,serif" font-size="14.00" fill="white">TGV Eintracht Beilstein</text>
</g>
<!-- Act2 -->
<g id="node13" class="node"><title>Act2</title>
<polygon fill="yellow" stroke="yellow" points="246,-38 167,-38 167,-0 246,-0 246,-38"/>
<text text-anchor="middle" x="206.5" y="-22.8" font-family="Times New Roman,serif" font-size="14.00">Aktive</text>
<text text-anchor="middle" x="206.5" y="-7.8" font-family="Times New Roman,serif" font-size="14.00">SC Abstatt</text>
</g>
<!-- Act3 -->
<g id="node14" class="node"><title>Act3</title>
<polygon fill="green" stroke="green" points="337,-38 264,-38 264,-0 337,-0 337,-38"/>
<text text-anchor="middle" x="300.5" y="-22.8" font-family="Times New Roman,serif" font-size="14.00" fill="white">Aktive</text>
<text text-anchor="middle" x="300.5" y="-7.8" font-family="Times New Roman,serif" font-size="14.00" fill="white">SC Ilsfeld</text>
</g>
<!-- Act4 -->
<g id="node15" class="node"><title>Act4</title>
<polygon fill="red" stroke="red" points="465.5,-38 355.5,-38 355.5,-0 465.5,-0 465.5,-38"/>
<text text-anchor="middle" x="410.5" y="-22.8" font-family="Times New Roman,serif" font-size="14.00" fill="white">Aktive</text>
<text text-anchor="middle" x="410.5" y="-7.8" font-family="Times New Roman,serif" font-size="14.00" fill="white">SPVGG Heinriet</text>
</g>
<!-- C1 -->
<g id="node18" class="node"><title>C1</title>
<g id="a_node18"><a xlink:href="https://sgm-abi.de/teams/C-Junioren.html" xlink:title="C1&#45;Junioren\nU14/U15">
<polygon fill="black" stroke="white" points="245.5,-260 161.5,-260 161.5,-222 245.5,-222 245.5,-260"/>
<text text-anchor="middle" x="203.5" y="-244.8" font-family="Times New Roman,serif" font-size="14.00" fill="white">C1&#45;Junioren</text>
<text text-anchor="middle" x="203.5" y="-229.8" font-family="Times New Roman,serif" font-size="14.00" fill="white">U14/U15</text>
</a>
</g>
</g>
<!-- D1&#45;&gt;C1 -->
<g id="edge15" class="edge"><title>D1&#45;&gt;C1</title>
<path fill="none" stroke="white" d="M203.5,-295.831C203.5,-288.131 203.5,-278.974 203.5,-270.417"/>
<polygon fill="white" stroke="white" points="207,-270.413 203.5,-260.413 200,-270.413 207,-270.413"/>
</g>
<!-- C2 -->
<g id="node19" class="node"><title>C2</title>
<g id="a_node19"><a xlink:href="https://sgm-abi.de/teams/C-Junioren.html" xlink:title="C2&#45;Junioren\nU14/U15">
<polygon fill="black" stroke="white" points="347.5,-260 263.5,-260 263.5,-222 347.5,-222 347.5,-260"/>
<text text-anchor="middle" x="305.5" y="-244.8" font-family="Times New Roman,serif" font-size="14.00" fill="white">C2&#45;Junioren</text>
<text text-anchor="middle" x="305.5" y="-229.8" font-family="Times New Roman,serif" font-size="14.00" fill="white">U14/U15</text>
</a>
</g>
</g>
<!-- D1&#45;&gt;C2 -->
<g id="edge16" class="edge"><title>D1&#45;&gt;C2</title>
<path fill="none" stroke="white" d="M229.239,-295.831C242.044,-286.793 257.691,-275.748 271.472,-266.02"/>
<polygon fill="white" stroke="white" points="273.618,-268.789 279.769,-260.163 269.581,-263.07 273.618,-268.789"/>
</g>
<!-- D2&#45;&gt;C1 -->
<g id="edge17" class="edge"><title>D2&#45;&gt;C1</title>
<path fill="none" stroke="white" d="M279.761,-295.831C266.956,-286.793 251.309,-275.748 237.528,-266.02"/>
<polygon fill="white" stroke="white" points="239.419,-263.07 229.231,-260.163 235.382,-268.789 239.419,-263.07"/>
</g>
<!-- D2&#45;&gt;C2 -->
<g id="edge18" class="edge"><title>D2&#45;&gt;C2</title>
<path fill="none" stroke="white" d="M305.5,-295.831C305.5,-288.131 305.5,-278.974 305.5,-270.417"/>
<polygon fill="white" stroke="white" points="309,-270.413 305.5,-260.413 302,-270.413 309,-270.413"/>
</g>
<!-- B1 -->
<g id="node20" class="node"><title>B1</title>
<g id="a_node20"><a xlink:href="https://sgm-abi.de/teams/B-Junioren.html" xlink:title="B1&#45;Junioren\nU16/U17">
<polygon fill="black" stroke="white" points="245,-186 162,-186 162,-148 245,-148 245,-186"/>
<text text-anchor="middle" x="203.5" y="-170.8" font-family="Times New Roman,serif" font-size="14.00" fill="white">B1&#45;Junioren</text>
<text text-anchor="middle" x="203.5" y="-155.8" font-family="Times New Roman,serif" font-size="14.00" fill="white">U16/U17</text>
</a>
</g>
</g>
<!-- C1&#45;&gt;B1 -->
<g id="edge19" class="edge"><title>C1&#45;&gt;B1</title>
<path fill="none" stroke="white" d="M203.5,-221.831C203.5,-214.131 203.5,-204.974 203.5,-196.417"/>
<polygon fill="white" stroke="white" points="207,-196.413 203.5,-186.413 200,-196.413 207,-196.413"/>
</g>
<!-- B2 -->
<g id="node21" class="node"><title>B2</title>
<g id="a_node21"><a xlink:href="https://sgm-abi.de/teams/B-Junioren.html" xlink:title="B2&#45;Junioren\nU16/U17">
<polygon fill="black" stroke="white" points="346,-186 263,-186 263,-148 346,-148 346,-186"/>
<text text-anchor="middle" x="304.5" y="-170.8" font-family="Times New Roman,serif" font-size="14.00" fill="white">B2&#45;Junioren</text>
<text text-anchor="middle" x="304.5" y="-155.8" font-family="Times New Roman,serif" font-size="14.00" fill="white">U16/U17</text>
</a>
</g>
</g>
<!-- C1&#45;&gt;B2 -->
<g id="edge20" class="edge"><title>C1&#45;&gt;B2</title>
<path fill="none" stroke="white" d="M228.987,-221.831C241.666,-212.793 257.16,-201.748 270.806,-192.02"/>
<polygon fill="white" stroke="white" points="272.91,-194.818 279.022,-186.163 268.847,-189.118 272.91,-194.818"/>
</g>
<!-- C2&#45;&gt;B1 -->
<g id="edge21" class="edge"><title>C2&#45;&gt;B1</title>
<path fill="none" stroke="white" d="M279.761,-221.831C266.956,-212.793 251.309,-201.748 237.528,-192.02"/>
<polygon fill="white" stroke="white" points="239.419,-189.07 229.231,-186.163 235.382,-194.789 239.419,-189.07"/>
</g>
<!-- C2&#45;&gt;B2 -->
<g id="edge22" class="edge"><title>C2&#45;&gt;B2</title>
<path fill="none" stroke="white" d="M305.248,-221.831C305.141,-214.131 305.014,-204.974 304.895,-196.417"/>
<polygon fill="white" stroke="white" points="308.394,-196.364 304.756,-186.413 301.395,-196.461 308.394,-196.364"/>
</g>
<!-- A -->
<g id="node22" class="node"><title>A</title>
<g id="a_node22"><a xlink:href="https://sgm-abi.de/teams/A-Junioren.html" xlink:title="A&#45;Junioren\nU18/U19">
<polygon fill="black" stroke="white" points="292,-112 215,-112 215,-74 292,-74 292,-112"/>
<text text-anchor="middle" x="253.5" y="-96.8" font-family="Times New Roman,serif" font-size="14.00" fill="white">A&#45;Junioren</text>
<text text-anchor="middle" x="253.5" y="-81.8" font-family="Times New Roman,serif" font-size="14.00" fill="white">U18/U19</text>
</a>
</g>
</g>
<!-- B1&#45;&gt;A -->
<g id="edge23" class="edge"><title>B1&#45;&gt;A</title>
<path fill="none" stroke="white" d="M216.117,-147.831C221.817,-139.623 228.666,-129.761 234.936,-120.732"/>
<polygon fill="white" stroke="white" points="237.884,-122.623 240.713,-112.413 232.134,-118.631 237.884,-122.623"/>
</g>
<!-- B2&#45;&gt;A -->
<g id="edge24" class="edge"><title>B2&#45;&gt;A</title>
<path fill="none" stroke="white" d="M291.631,-147.831C285.816,-139.623 278.83,-129.761 272.435,-120.732"/>
<polygon fill="white" stroke="white" points="275.179,-118.55 266.543,-112.413 269.467,-122.597 275.179,-118.55"/>
</g>
<!-- A&#45;&gt;Act1 -->
<g id="edge25" class="edge"><title>A&#45;&gt;Act1</title>
<path fill="none" stroke="white" d="M214.66,-76.3771C189.55,-66.2769 156.507,-52.986 128.811,-41.8459"/>
<polygon fill="white" stroke="white" points="129.844,-38.4886 119.26,-38.0039 127.231,-44.9829 129.844,-38.4886"/>
</g>
<!-- A&#45;&gt;Act2 -->
<g id="edge26" class="edge"><title>A&#45;&gt;Act2</title>
<path fill="none" stroke="white" d="M241.64,-73.8314C236.337,-65.7079 229.976,-55.9637 224.133,-47.0118"/>
<polygon fill="white" stroke="white" points="226.917,-44.8739 218.52,-38.4133 221.055,-48.7003 226.917,-44.8739"/>
</g>
<!-- A&#45;&gt;Act3 -->
<g id="edge27" class="edge"><title>A&#45;&gt;Act3</title>
<path fill="none" stroke="white" d="M265.36,-73.8314C270.663,-65.7079 277.024,-55.9637 282.867,-47.0118"/>
<polygon fill="white" stroke="white" points="285.945,-48.7003 288.48,-38.4133 280.083,-44.8739 285.945,-48.7003"/>
</g>
<!-- A&#45;&gt;Act4 -->
<g id="edge28" class="edge"><title>A&#45;&gt;Act4</title>
<path fill="none" stroke="white" d="M292.309,-74.2022C313.285,-64.5827 339.392,-52.6101 361.73,-42.3658"/>
<polygon fill="white" stroke="white" points="363.416,-45.4431 371.047,-38.0931 360.498,-39.0803 363.416,-45.4431"/>
</g>
</g>
</svg>
